<svg width="50" height="50" viewBox="0 0 50 50" fill="none" xmlns="http://www.w3.org/2000/svg">
<path d="M44.4444 5H32.8333C31.6667 2.1 28.6111 0 25 0C21.3889 0 18.3333 2.1 17.1667 5H5.55556C2.5 5 0 7.25 0 10V45C0 47.75 2.5 50 5.55556 50H44.4444C47.5 50 50 47.75 50 45V10C50 7.25 47.5 5 44.4444 5ZM25 5C26.5278 5 27.7778 6.125 27.7778 7.5C27.7778 8.875 26.5278 10 25 10C23.4722 10 22.2222 8.875 22.2222 7.5C22.2222 6.125 23.4722 5 25 5ZM19.4444 40L8.33333 30L12.25 26.475L19.4444 32.925L37.75 16.45L41.6667 20L19.4444 40Z" fill="#555BFF"/>
</svg>
