<svg width="23" height="25" viewBox="0 0 23 25" fill="none" xmlns="http://www.w3.org/2000/svg">
<path d="M11.3334 11.182C10.7811 11.182 10.3334 11.6297 10.3334 12.182C10.3334 12.7343 10.7811 13.182 11.3334 13.182V11.182ZM15.6701 13.182C16.2224 13.182 16.6701 12.7343 16.6701 12.182C16.6701 11.6297 16.2224 11.182 15.6701 11.182V13.182ZM11.3334 16.1517C10.7811 16.1517 10.3334 16.5994 10.3334 17.1517C10.3334 17.704 10.7811 18.1517 11.3334 18.1517V16.1517ZM15.6701 18.1517C16.2224 18.1517 16.6701 17.704 16.6701 17.1517C16.6701 16.5994 16.2224 16.1517 15.6701 16.1517V18.1517ZM6.99667 11.182C6.44438 11.182 5.99667 11.6297 5.99667 12.182C5.99667 12.7343 6.44438 13.182 6.99667 13.182V11.182ZM7.01112 13.182C7.56341 13.182 8.01112 12.7343 8.01112 12.182C8.01112 11.6297 7.56341 11.182 7.01112 11.182V13.182ZM6.99667 16.1517C6.44438 16.1517 5.99667 16.5994 5.99667 17.1517C5.99667 17.704 6.44438 18.1517 6.99667 18.1517V16.1517ZM7.01112 18.1517C7.56341 18.1517 8.01112 17.704 8.01112 17.1517C8.01112 16.5994 7.56341 16.1517 7.01112 16.1517V18.1517ZM20.4524 5.96976V20.8791H22.4524V5.96976H20.4524ZM18.5613 22.3639H4.10551V24.3639H18.5613V22.3639ZM2.21436 20.8791V5.96976H0.214355V20.8791H2.21436ZM4.10551 4.48488H6.99667V2.48488H4.10551V4.48488ZM15.6701 4.48488H18.5613V2.48488H15.6701V4.48488ZM4.10551 22.3639C2.9136 22.3639 2.21436 21.5624 2.21436 20.8791H0.214355C0.214355 22.9404 2.10394 24.3639 4.10551 24.3639V22.3639ZM20.4524 20.8791C20.4524 21.5624 19.7532 22.3639 18.5613 22.3639V24.3639C20.5629 24.3639 22.4524 22.9404 22.4524 20.8791H20.4524ZM22.4524 5.96976C22.4524 3.90838 20.5629 2.48488 18.5613 2.48488V4.48488C19.7532 4.48488 20.4524 5.28642 20.4524 5.96976H22.4524ZM2.21436 5.96976C2.21436 5.28642 2.9136 4.48488 4.10551 4.48488V2.48488C2.10394 2.48488 0.214355 3.90838 0.214355 5.96976H2.21436ZM11.3334 13.182H15.6701V11.182H11.3334V13.182ZM11.3334 18.1517H15.6701V16.1517H11.3334V18.1517ZM9.88782 2H12.779V0H9.88782V2ZM12.779 4.96976H9.88782V6.96976H12.779V4.96976ZM9.88782 4.96976C8.69591 4.96976 7.99667 4.16823 7.99667 3.48488H5.99667C5.99667 5.54626 7.88625 6.96976 9.88782 6.96976V4.96976ZM14.6701 3.48488C14.6701 4.16823 13.9709 4.96976 12.779 4.96976V6.96976C14.7806 6.96976 16.6701 5.54626 16.6701 3.48488H14.6701ZM12.779 2C13.9709 2 14.6701 2.80154 14.6701 3.48488H16.6701C16.6701 1.4235 14.7806 0 12.779 0V2ZM9.88782 0C7.88625 0 5.99667 1.4235 5.99667 3.48488H7.99667C7.99667 2.80154 8.69591 2 9.88782 2V0ZM6.99667 13.182H7.01112V11.182H6.99667V13.182ZM6.99667 18.1517H7.01112V16.1517H6.99667V18.1517Z" fill="url(#paint0_linear_266_1276)"/>
<defs>
<linearGradient id="paint0_linear_266_1276" x1="1.21436" y1="11.9335" x2="21.4524" y2="11.9335" gradientUnits="userSpaceOnUse">
<stop stop-color="#5F64FF" stop-opacity="0.7"/>
<stop offset="1" stop-color="#AE4EFF" stop-opacity="0.85"/>
</linearGradient>
</defs>
</svg>
