<svg width="27" height="22" viewBox="0 0 27 22" fill="none" xmlns="http://www.w3.org/2000/svg">
<path d="M18.3369 9.42857C20.3662 9.42857 21.9921 7.32286 21.9921 4.71429C21.9921 2.10571 20.3662 0 18.3369 0C16.3076 0 14.6695 2.10571 14.6695 4.71429C14.6695 7.32286 16.3076 9.42857 18.3369 9.42857ZM8.55722 9.42857C10.5865 9.42857 12.2124 7.32286 12.2124 4.71429C12.2124 2.10571 10.5865 0 8.55722 0C6.52794 0 4.88984 2.10571 4.88984 4.71429C4.88984 7.32286 6.52794 9.42857 8.55722 9.42857ZM8.55722 12.5714C5.70889 12.5714 0 14.41 0 18.0714V22H17.1144V18.0714C17.1144 14.41 11.4055 12.5714 8.55722 12.5714ZM18.3369 12.5714C17.9824 12.5714 17.579 12.6029 17.1511 12.65C18.5692 13.97 19.5594 15.7457 19.5594 18.0714V22H26.8941V18.0714C26.8941 14.41 21.1852 12.5714 18.3369 12.5714Z" fill="url(#paint0_linear_266_1367)"/>
<defs>
<linearGradient id="paint0_linear_266_1367" x1="-2.0483e-07" y1="10.7556" x2="26.8941" y2="10.7556" gradientUnits="userSpaceOnUse">
<stop stop-color="#5F64FF" stop-opacity="0.7"/>
<stop offset="1" stop-color="#AE4EFF" stop-opacity="0.85"/>
</linearGradient>
</defs>
</svg>
