<svg width="53" height="54" viewBox="0 0 53 54" fill="none" xmlns="http://www.w3.org/2000/svg">
<path d="M25.5405 2.26966C25.8216 1.31178 27.1784 1.31178 27.4595 2.26966L32.4639 19.3221C32.5888 19.748 32.9795 20.0405 33.4234 20.0406L49.8161 20.0412C50.76 20.0413 51.1783 21.2287 50.443 21.8204L37.0118 32.6268C36.6965 32.8805 36.5651 33.2992 36.6791 33.6875L41.7667 51.0282C42.0423 51.9677 40.9432 52.7026 40.1803 52.0889L27.1268 41.588C26.7608 41.2936 26.2392 41.2935 25.8732 41.588L12.8197 52.0889C12.0568 52.7026 10.9577 51.9677 11.2333 51.0282L16.3209 33.6875C16.4349 33.2992 16.3035 32.8805 15.9882 32.6268L2.55705 21.8204C1.82166 21.2287 2.24001 20.0413 3.18387 20.0412L19.5766 20.0406C20.0205 20.0405 20.4112 19.748 20.5361 19.3221L25.5405 2.26966Z" stroke="url(#paint0_linear_266_1344)" stroke-width="3"/>
<defs>
<linearGradient id="paint0_linear_266_1344" x1="-1" y1="28.7746" x2="54" y2="28.7746" gradientUnits="userSpaceOnUse">
<stop stop-color="#5F64FF" stop-opacity="0.7"/>
<stop offset="1" stop-color="#AE4EFF" stop-opacity="0.85"/>
</linearGradient>
</defs>
</svg>
