<svg width="106" height="59" viewBox="0 0 106 59" fill="none" xmlns="http://www.w3.org/2000/svg">
<g clip-path="url(#clip0_368_1466)">
<path d="M55.3789 26.0419H60.3948L58.9854 24.6325C58.6032 24.2503 58.3884 23.7319 58.3884 23.1913V20.0228C58.3884 17.4021 56.7135 15.1726 54.3757 14.3463V14.0038C54.3757 12.8957 53.4775 11.9974 52.3694 11.9974C51.2613 11.9974 50.363 12.8957 50.363 14.0038V14.3463C48.0253 15.1726 46.3503 17.4021 46.3503 20.0228V23.1913C46.3503 23.7319 46.1356 24.2503 45.7534 24.6325L44.344 26.0419H49.3599M55.3789 26.0419V27.0451C55.3789 28.7072 54.0315 30.0546 52.3694 30.0546C50.7073 30.0546 49.3599 28.7072 49.3599 27.0451V26.0419M55.3789 26.0419H49.3599" stroke="#373F41" stroke-width="1.50476" stroke-linecap="round" stroke-linejoin="round"/>
</g>
<path d="M21.1 37.2241V46.8666H20.0301L14.5046 39.5806V46.8666H13.191V37.2241H14.2473L19.7863 44.5237V37.2241H21.1ZM26.2402 46.9614C25.5721 46.9614 24.9853 46.817 24.4797 46.5281C23.9741 46.2392 23.5813 45.8284 23.3014 45.2957C23.0306 44.763 22.8952 44.14 22.8952 43.4268C22.8952 42.7135 23.0306 42.0905 23.3014 41.5578C23.5813 41.0161 23.9741 40.6008 24.4797 40.3119C24.9853 40.023 25.5721 39.8785 26.2402 39.8785C26.8993 39.8785 27.4817 40.023 27.9873 40.3119C28.4929 40.6008 28.8811 41.0161 29.152 41.5578C29.4318 42.0905 29.5718 42.7135 29.5718 43.4268C29.5718 44.14 29.4318 44.763 29.152 45.2957C28.8811 45.8284 28.4929 46.2392 27.9873 46.5281C27.4817 46.817 26.8993 46.9614 26.2402 46.9614ZM26.2267 45.878C26.8587 45.878 27.3417 45.6704 27.6758 45.255C28.0098 44.8397 28.1769 44.2303 28.1769 43.4268C28.1769 42.6413 28.0053 42.0364 27.6622 41.612C27.3282 41.1877 26.8542 40.9755 26.2402 40.9755C25.6173 40.9755 25.1342 41.1877 24.7912 41.612C24.4481 42.0364 24.2765 42.6413 24.2765 43.4268C24.2765 44.2303 24.4436 44.8397 24.7776 45.255C25.1207 45.6704 25.6037 45.878 26.2267 45.878ZM32.9935 41.0974V44.5237C32.9935 44.9932 33.0928 45.3273 33.2914 45.5259C33.4991 45.7155 33.7835 45.8103 34.1446 45.8103C34.3794 45.8103 34.6186 45.7742 34.8624 45.702V46.8125C34.5645 46.9118 34.2259 46.9614 33.8467 46.9614C33.1425 46.9614 32.5962 46.7628 32.208 46.3656C31.8198 45.9683 31.6257 45.3905 31.6257 44.6321V41.0974H30.2985V40.041H31.6257V38.3346L32.9935 37.8606V40.041H34.8759V41.0974H32.9935ZM36.2145 40.041H37.5688V46.8666H36.2145V40.041ZM37.6771 37.0616V38.4972H36.0926V37.0616H37.6771ZM41.4231 40.041H45.7433V46.8666H44.3754V41.0974H41.4231V46.8666H40.0553V41.0974H38.7281V40.041H40.0553V39.242C40.0553 38.6552 40.141 38.1902 40.3126 37.8471C40.4932 37.504 40.7821 37.2557 41.1793 37.1022C41.5856 36.9397 42.1364 36.8585 42.8316 36.8585H43.292V37.8877H42.9534C42.511 37.8877 42.186 37.9284 41.9784 38.0096C41.7707 38.0818 41.6262 38.2263 41.545 38.443C41.4637 38.6506 41.4231 38.9802 41.4231 39.4316V40.041ZM45.8652 36.9939V38.4701H44.2536V36.9939H45.8652ZM50.7709 46.9614C50.0847 46.9614 49.4843 46.817 48.9697 46.5281C48.4641 46.2392 48.0758 45.8329 47.805 45.3092C47.5341 44.7765 47.3987 44.1581 47.3987 43.4538C47.3987 42.7496 47.5386 42.1266 47.8185 41.5849C48.1074 41.0432 48.5092 40.6234 49.0238 40.3254C49.5385 40.0275 50.1389 39.8785 50.825 39.8785C51.3035 39.8785 51.764 39.9598 52.2064 40.1223C52.6488 40.2758 53.0054 40.488 53.2763 40.7588L52.8565 41.7474C52.2154 41.2418 51.5699 40.989 50.9198 40.989C50.2607 40.989 49.7461 41.2057 49.3759 41.6391C49.0058 42.0634 48.8207 42.6638 48.8207 43.4403C48.8207 44.2168 49.0058 44.8172 49.3759 45.2415C49.7461 45.6568 50.2607 45.8645 50.9198 45.8645C51.5879 45.8645 52.2335 45.6117 52.8565 45.1061L53.2763 46.0947C52.9874 46.3656 52.6172 46.5777 52.1658 46.7312C51.7234 46.8847 51.2584 46.9614 50.7709 46.9614ZM60.8817 40.041V46.8666H59.5274V45.702C59.3287 46.1082 59.0308 46.4197 58.6335 46.6364C58.2453 46.8531 57.7894 46.9614 57.2657 46.9614C56.6608 46.9614 56.1281 46.817 55.6677 46.5281C55.2162 46.2392 54.8641 45.8329 54.6113 45.3092C54.3585 44.7765 54.2321 44.1581 54.2321 43.4538C54.2321 42.7496 54.3585 42.1266 54.6113 41.5849C54.8731 41.0432 55.2343 40.6234 55.6947 40.3254C56.1552 40.0275 56.6789 39.8785 57.2657 39.8785C57.7894 39.8785 58.2453 39.9914 58.6335 40.2171C59.0218 40.4338 59.3197 40.7453 59.5274 41.1516V40.041H60.8817ZM57.5907 45.878C58.2047 45.878 58.6787 45.6658 59.0127 45.2415C59.3558 44.8081 59.5274 44.2032 59.5274 43.4268C59.5274 42.6413 59.3558 42.0364 59.0127 41.612C58.6787 41.1877 58.2002 40.9755 57.5772 40.9755C56.9633 40.9755 56.4802 41.1967 56.1281 41.6391C55.785 42.0725 55.6135 42.6774 55.6135 43.4538C55.6135 44.2213 55.785 44.8172 56.1281 45.2415C56.4802 45.6658 56.9678 45.878 57.5907 45.878ZM64.7404 41.0974V44.5237C64.7404 44.9932 64.8398 45.3273 65.0384 45.5259C65.246 45.7155 65.5304 45.8103 65.8916 45.8103C66.1263 45.8103 66.3656 45.7742 66.6094 45.702V46.8125C66.3114 46.9118 65.9728 46.9614 65.5936 46.9614C64.8894 46.9614 64.3432 46.7628 63.955 46.3656C63.5667 45.9683 63.3726 45.3905 63.3726 44.6321V41.0974H62.0454V40.041H63.3726V38.3346L64.7404 37.8606V40.041H66.6229V41.0974H64.7404ZM67.9614 40.041H69.3157V46.8666H67.9614V40.041ZM69.4241 37.0616V38.4972H67.8395V37.0616H69.4241ZM74.3347 46.9614C73.6666 46.9614 73.0798 46.817 72.5742 46.5281C72.0686 46.2392 71.6758 45.8284 71.3959 45.2957C71.1251 44.763 70.9896 44.14 70.9896 43.4268C70.9896 42.7135 71.1251 42.0905 71.3959 41.5578C71.6758 41.0161 72.0686 40.6008 72.5742 40.3119C73.0798 40.023 73.6666 39.8785 74.3347 39.8785C74.9938 39.8785 75.5762 40.023 76.0818 40.3119C76.5874 40.6008 76.9756 41.0161 77.2464 41.5578C77.5263 42.0905 77.6663 42.7135 77.6663 43.4268C77.6663 44.14 77.5263 44.763 77.2464 45.2957C76.9756 45.8284 76.5874 46.2392 76.0818 46.5281C75.5762 46.817 74.9938 46.9614 74.3347 46.9614ZM74.3212 45.878C74.9532 45.878 75.4362 45.6704 75.7703 45.255C76.1043 44.8397 76.2714 44.2303 76.2714 43.4268C76.2714 42.6413 76.0998 42.0364 75.7567 41.612C75.4227 41.1877 74.9487 40.9755 74.3347 40.9755C73.7118 40.9755 73.2287 41.1877 72.8856 41.612C72.5426 42.0364 72.371 42.6413 72.371 43.4268C72.371 44.2303 72.538 44.8397 72.8721 45.255C73.2152 45.6704 73.6982 45.878 74.3212 45.878ZM82.9698 39.8785C84.604 39.8785 85.421 40.7904 85.421 42.6142V46.8666H84.0532V42.6954C84.0532 42.0996 83.9358 41.6662 83.7011 41.3953C83.4754 41.1245 83.1097 40.989 82.6041 40.989C82.0263 40.989 81.5613 41.1696 81.2092 41.5308C80.8661 41.8919 80.6946 42.3749 80.6946 42.9798V46.8666H79.3403V41.9641C79.3403 41.2509 79.3042 40.6098 79.232 40.041H80.505L80.6269 41.2193C80.8436 40.7859 81.155 40.4564 81.5613 40.2306C81.9766 39.9959 82.4461 39.8785 82.9698 39.8785ZM89.8269 46.9614C88.6352 46.9614 87.6962 46.6725 87.01 46.0947L87.4163 45.1061C88.1296 45.6478 88.9467 45.9186 89.8676 45.9186C90.3371 45.9186 90.6937 45.8419 90.9375 45.6884C91.1812 45.5259 91.3031 45.3002 91.3031 45.0113C91.3031 44.7675 91.2173 44.5779 91.0458 44.4425C90.8833 44.298 90.6034 44.1761 90.2061 44.0768L89.0685 43.806C88.4727 43.6796 88.0167 43.4584 87.7007 43.1424C87.3937 42.8173 87.2403 42.4156 87.2403 41.937C87.2403 41.3231 87.484 40.8265 87.9716 40.4473C88.4681 40.0681 89.1227 39.8785 89.9353 39.8785C90.4228 39.8785 90.8833 39.9553 91.3167 40.1088C91.7591 40.2622 92.1337 40.4789 92.4407 40.7588L92.0209 41.7204C91.3618 41.1967 90.6666 40.9349 89.9353 40.9349C89.4929 40.9349 89.1498 41.0206 88.906 41.1922C88.6623 41.3547 88.5404 41.5849 88.5404 41.8829C88.5404 42.1176 88.6171 42.3072 88.7706 42.4517C88.9241 42.5961 89.1679 42.709 89.5019 42.7902L90.6666 43.0746C91.3167 43.2191 91.7952 43.4493 92.1021 43.7653C92.4181 44.0723 92.5761 44.4741 92.5761 44.9706C92.5761 45.5846 92.3279 46.0721 91.8313 46.4333C91.3437 46.7854 90.6756 46.9614 89.8269 46.9614Z" fill="#373F41"/>
<defs>
<clipPath id="clip0_368_1466">
<rect width="24.8286" height="24.0762" fill="white" transform="translate(40.2812 9.79047)"/>
</clipPath>
</defs>
</svg>
