<svg width="22" height="18" viewBox="0 0 22 18" fill="none" xmlns="http://www.w3.org/2000/svg">
<path d="M15.8879 17.127H20.7471V15.1834C20.7471 13.5732 19.4418 12.2679 17.8316 12.2679C16.9029 12.2679 16.0756 12.7021 15.5417 13.3786M15.8879 17.127H6.16967M15.8879 17.127V15.1834C15.8879 14.5456 15.7651 13.9366 15.5417 13.3786M6.16967 17.127H1.31055V15.1834C1.31055 13.5732 2.61585 12.2679 4.22602 12.2679C5.15471 12.2679 5.98197 12.7021 6.51588 13.3786M6.16967 17.127V15.1834C6.16967 14.5456 6.29254 13.9366 6.51588 13.3786M6.51588 13.3786C7.23237 11.5886 8.98293 10.3242 11.0288 10.3242C13.0747 10.3242 14.8252 11.5886 15.5417 13.3786M13.9443 4.4933C13.9443 6.10347 12.639 7.40877 11.0288 7.40877C9.41863 7.40877 8.11332 6.10347 8.11332 4.4933C8.11332 2.88312 9.41863 1.57782 11.0288 1.57782C12.639 1.57782 13.9443 2.88312 13.9443 4.4933ZM19.7752 7.40877C19.7752 8.48222 18.905 9.35242 17.8316 9.35242C16.7581 9.35242 15.8879 8.48222 15.8879 7.40877C15.8879 6.33532 16.7581 5.46512 17.8316 5.46512C18.905 5.46512 19.7752 6.33532 19.7752 7.40877ZM6.16967 7.40877C6.16967 8.48222 5.29947 9.35242 4.22602 9.35242C3.15257 9.35242 2.28237 8.48222 2.28237 7.40877C2.28237 6.33532 3.15257 5.46512 4.22602 5.46512C5.29947 5.46512 6.16967 6.33532 6.16967 7.40877Z" stroke="#363636" stroke-width="1.50476" stroke-linecap="round" stroke-linejoin="round"/>
</svg>
