<svg width="106" height="61" viewBox="0 0 106 61" fill="none" xmlns="http://www.w3.org/2000/svg">
<path d="M47.8365 31.575H57.5547C58.6282 31.575 59.4984 30.7048 59.4984 29.6314V20.3156C59.4984 20.0579 59.396 19.8107 59.2137 19.6285L53.9521 14.3668C53.7698 14.1845 53.5226 14.0822 53.2649 14.0822H47.8365C46.763 14.0822 45.8928 14.9524 45.8928 16.0258V29.6314C45.8928 30.7048 46.763 31.575 47.8365 31.575Z" stroke="#373F41" stroke-width="1.50476" stroke-linecap="round" stroke-linejoin="round"/>
<path d="M49.78 25.987H55.8539" stroke="#373F41" stroke-width="1.51848" stroke-linecap="round" stroke-linejoin="round"/>
<path d="M49.78 22.9501H55.8539" stroke="#373F41" stroke-width="1.51848" stroke-linecap="round" stroke-linejoin="round"/>
<path d="M49.78 19.9131H52.817" stroke="#373F41" stroke-width="1.51848" stroke-linecap="round" stroke-linejoin="round"/>
<path d="M30.9035 42.5202C31.4633 42.6737 31.8966 42.9536 32.2036 43.3599C32.5106 43.7662 32.6641 44.2673 32.6641 44.8632C32.6641 45.6938 32.3752 46.3393 31.7973 46.7998C31.2285 47.2602 30.4295 47.4905 29.4002 47.4905H25.229V37.848H29.2648C30.258 37.848 31.0299 38.0692 31.5806 38.5116C32.1404 38.954 32.4203 39.5724 32.4203 40.3669C32.4203 40.8816 32.2849 41.3285 32.014 41.7077C31.7522 42.0778 31.382 42.3487 30.9035 42.5202ZM26.6104 42.0327H29.0481C30.3934 42.0327 31.066 41.5136 31.066 40.4753C31.066 39.4731 30.3934 38.972 29.0481 38.972H26.6104V42.0327ZM29.2648 46.3664C29.969 46.3664 30.4837 46.24 30.8087 45.9872C31.1337 45.7254 31.2962 45.3236 31.2962 44.7819C31.2962 44.2312 31.1292 43.8249 30.7952 43.563C30.4701 43.2922 29.96 43.1568 29.2648 43.1568H26.6104V46.3664H29.2648ZM34.4534 37.5229H35.8077V47.4905H34.4534V37.5229ZM40.8267 47.5853C40.1586 47.5853 39.5718 47.4408 39.0662 47.1519C38.5606 46.863 38.1678 46.4522 37.8879 45.9195C37.6171 45.3868 37.4816 44.7638 37.4816 44.0506C37.4816 43.3373 37.6171 42.7144 37.8879 42.1817C38.1678 41.64 38.5606 41.2246 39.0662 40.9357C39.5718 40.6468 40.1586 40.5024 40.8267 40.5024C41.4858 40.5024 42.0682 40.6468 42.5738 40.9357C43.0794 41.2246 43.4676 41.64 43.7384 42.1817C44.0183 42.7144 44.1583 43.3373 44.1583 44.0506C44.1583 44.7638 44.0183 45.3868 43.7384 45.9195C43.4676 46.4522 43.0794 46.863 42.5738 47.1519C42.0682 47.4408 41.4858 47.5853 40.8267 47.5853ZM40.8132 46.5018C41.4452 46.5018 41.9282 46.2942 42.2623 45.8789C42.5963 45.4636 42.7634 44.8541 42.7634 44.0506C42.7634 43.2651 42.5918 42.6602 42.2487 42.2358C41.9147 41.8115 41.4407 41.5993 40.8267 41.5993C40.2038 41.5993 39.7207 41.8115 39.3776 42.2358C39.0346 42.6602 38.863 43.2651 38.863 44.0506C38.863 44.8541 39.03 45.4636 39.3641 45.8789C39.7072 46.2942 40.1902 46.5018 40.8132 46.5018ZM52.1297 40.6649V47.3686C52.1297 48.4069 51.8544 49.1879 51.3036 49.7115C50.7619 50.2442 49.9539 50.5105 48.8795 50.5105C47.8412 50.5105 46.9338 50.2848 46.1573 49.8334L46.3876 48.7635C46.8119 48.9892 47.2182 49.1563 47.6064 49.2646C48.0037 49.3729 48.4235 49.4271 48.8659 49.4271C50.1389 49.4271 50.7755 48.7771 50.7755 47.4769V46.0008C50.5678 46.398 50.2653 46.714 49.8681 46.9488C49.4708 47.1745 49.0104 47.2873 48.4867 47.2873C47.8908 47.2873 47.3581 47.1474 46.8887 46.8675C46.4282 46.5876 46.0671 46.1904 45.8052 45.6757C45.5524 45.1611 45.426 44.5697 45.426 43.9016C45.426 43.2335 45.5524 42.6421 45.8052 42.1275C46.0671 41.6129 46.4282 41.2156 46.8887 40.9357C47.3581 40.6468 47.8908 40.5024 48.4867 40.5024C49.0104 40.5024 49.4708 40.6152 49.8681 40.8409C50.2653 41.0576 50.5678 41.3691 50.7755 41.7754V40.6649H52.1297ZM48.7982 46.1904C49.4121 46.1904 49.8952 45.9872 50.2473 45.5809C50.5994 45.1746 50.7755 44.6149 50.7755 43.9016C50.7755 43.1884 50.5994 42.6286 50.2473 42.2223C49.9042 41.807 49.4212 41.5993 48.7982 41.5993C48.1843 41.5993 47.6967 41.807 47.3356 42.2223C46.9835 42.6286 46.8074 43.1884 46.8074 43.9016C46.8074 44.6058 46.9835 45.1656 47.3356 45.5809C47.6967 45.9872 48.1843 46.1904 48.7982 46.1904ZM57.8291 40.5024C58.4159 40.5024 58.9396 40.6513 59.4 40.9493C59.8605 41.2472 60.2171 41.667 60.4699 42.2088C60.7318 42.7505 60.8627 43.3734 60.8627 44.0777C60.8627 44.7819 60.7363 45.4004 60.4835 45.933C60.2307 46.4567 59.874 46.863 59.4136 47.1519C58.9531 47.4408 58.425 47.5853 57.8291 47.5853C57.3054 47.5853 56.845 47.4769 56.4477 47.2602C56.0595 47.0345 55.766 46.714 55.5674 46.2987V50.4157H54.2131V42.588C54.2131 41.8747 54.177 41.2337 54.1048 40.6649H55.3778L55.5132 41.9244C55.6938 41.4729 55.9872 41.1253 56.3935 40.8816C56.7998 40.6288 57.2783 40.5024 57.8291 40.5024ZM57.5176 46.5018C58.1315 46.5018 58.61 46.2897 58.9531 45.8653C59.2962 45.441 59.4678 44.8451 59.4678 44.0777C59.4678 43.3012 59.2962 42.6963 58.9531 42.2629C58.61 41.8205 58.1315 41.5993 57.5176 41.5993C56.8856 41.5993 56.4026 41.8115 56.0685 42.2358C55.7344 42.6602 55.5674 43.2651 55.5674 44.0506C55.5674 44.8361 55.7344 45.441 56.0685 45.8653C56.4116 46.2897 56.8946 46.5018 57.5176 46.5018ZM65.4798 47.5853C64.8117 47.5853 64.2249 47.4408 63.7193 47.1519C63.2137 46.863 62.8209 46.4522 62.541 45.9195C62.2702 45.3868 62.1348 44.7638 62.1348 44.0506C62.1348 43.3373 62.2702 42.7144 62.541 42.1817C62.8209 41.64 63.2137 41.2246 63.7193 40.9357C64.2249 40.6468 64.8117 40.5024 65.4798 40.5024C66.1389 40.5024 66.7213 40.6468 67.2269 40.9357C67.7325 41.2246 68.1207 41.64 68.3916 42.1817C68.6714 42.7144 68.8114 43.3373 68.8114 44.0506C68.8114 44.7638 68.6714 45.3868 68.3916 45.9195C68.1207 46.4522 67.7325 46.863 67.2269 47.1519C66.7213 47.4408 66.1389 47.5853 65.4798 47.5853ZM65.4663 46.5018C66.0983 46.5018 66.5813 46.2942 66.9154 45.8789C67.2494 45.4636 67.4165 44.8541 67.4165 44.0506C67.4165 43.2651 67.2449 42.6602 66.9018 42.2358C66.5678 41.8115 66.0938 41.5993 65.4798 41.5993C64.8569 41.5993 64.3738 41.8115 64.0308 42.2358C63.6877 42.6602 63.5161 43.2651 63.5161 44.0506C63.5161 44.8541 63.6832 45.4636 64.0172 45.8789C64.3603 46.2942 64.8433 46.5018 65.4663 46.5018ZM72.869 47.5853C71.6772 47.5853 70.7382 47.2964 70.052 46.7185L70.4583 45.7299C71.1716 46.2716 71.9887 46.5425 72.9096 46.5425C73.3791 46.5425 73.7357 46.4657 73.9795 46.3122C74.2232 46.1497 74.3451 45.924 74.3451 45.6351C74.3451 45.3913 74.2594 45.2017 74.0878 45.0663C73.9253 44.9218 73.6454 44.8 73.2482 44.7006L72.1106 44.4298C71.5147 44.3034 71.0587 44.0822 70.7427 43.7662C70.4358 43.4412 70.2823 43.0394 70.2823 42.5609C70.2823 41.9469 70.526 41.4504 71.0136 41.0712C71.5102 40.692 72.1647 40.5024 72.9773 40.5024C73.4648 40.5024 73.9253 40.5791 74.3587 40.7326C74.8011 40.8861 75.1758 41.1028 75.4827 41.3826L75.0629 42.3442C74.4038 41.8205 73.7086 41.5587 72.9773 41.5587C72.5349 41.5587 72.1918 41.6445 71.948 41.816C71.7043 41.9785 71.5824 42.2088 71.5824 42.5067C71.5824 42.7414 71.6591 42.931 71.8126 43.0755C71.9661 43.22 72.2099 43.3328 72.5439 43.4141L73.7086 43.6985C74.3587 43.8429 74.8372 44.0732 75.1442 44.3892C75.4602 44.6961 75.6182 45.0979 75.6182 45.5945C75.6182 46.2084 75.3699 46.696 74.8733 47.0571C74.3858 47.4092 73.7176 47.5853 72.869 47.5853ZM79.0136 41.7212V45.1476C79.0136 45.617 79.1129 45.9511 79.3116 46.1497C79.5192 46.3393 79.8036 46.4341 80.1648 46.4341C80.3995 46.4341 80.6388 46.398 80.8825 46.3258V47.4363C80.5846 47.5356 80.246 47.5853 79.8668 47.5853C79.1626 47.5853 78.6164 47.3866 78.2281 46.9894C77.8399 46.5921 77.6458 46.0143 77.6458 45.2559V41.7212H76.3186V40.6649H77.6458V38.9585L79.0136 38.4845V40.6649H80.8961V41.7212H79.0136Z" fill="#373F41"/>
</svg>
