<svg width="106" height="60" viewBox="0 0 106 60" fill="none" xmlns="http://www.w3.org/2000/svg">
<path d="M57.8879 30.127H62.7471V28.1834C62.7471 26.5732 61.4418 25.2679 59.8316 25.2679C58.9029 25.2679 58.0756 25.7021 57.5417 26.3786M57.8879 30.127H48.1697M57.8879 30.127V28.1834C57.8879 27.5456 57.7651 26.9366 57.5417 26.3786M48.1697 30.127H43.3105V28.1834C43.3105 26.5732 44.6159 25.2679 46.226 25.2679C47.1547 25.2679 47.982 25.7021 48.5159 26.3786M48.1697 30.127V28.1834C48.1697 27.5456 48.2925 26.9366 48.5159 26.3786M48.5159 26.3786C49.2324 24.5886 50.9829 23.3242 53.0288 23.3242C55.0747 23.3242 56.8252 24.5886 57.5417 26.3786M55.9443 17.4933C55.9443 19.1035 54.639 20.4088 53.0288 20.4088C51.4186 20.4088 50.1133 19.1035 50.1133 17.4933C50.1133 15.8831 51.4186 14.5778 53.0288 14.5778C54.639 14.5778 55.9443 15.8831 55.9443 17.4933ZM61.7752 20.4088C61.7752 21.4822 60.905 22.3524 59.8316 22.3524C58.7581 22.3524 57.8879 21.4822 57.8879 20.4088C57.8879 19.3353 58.7581 18.4651 59.8316 18.4651C60.905 18.4651 61.7752 19.3353 61.7752 20.4088ZM48.1697 20.4088C48.1697 21.4822 47.2995 22.3524 46.226 22.3524C45.1526 22.3524 44.2824 21.4822 44.2824 20.4088C44.2824 19.3353 45.1526 18.4651 46.226 18.4651C47.2995 18.4651 48.1697 19.3353 48.1697 20.4088Z" stroke="#363636" stroke-width="1.50476" stroke-linecap="round" stroke-linejoin="round"/>
<path d="M22.9925 47.1226C22.0626 47.1226 21.25 46.924 20.5548 46.5267C19.8687 46.1205 19.3405 45.5471 18.9703 44.8068C18.6001 44.0665 18.4151 43.1907 18.4151 42.1795C18.4151 41.1773 18.6001 40.3061 18.9703 39.5657C19.3405 38.8254 19.8687 38.2566 20.5548 37.8593C21.25 37.4621 22.0626 37.2634 22.9925 37.2634C23.6516 37.2634 24.2611 37.3673 24.8208 37.5749C25.3896 37.7735 25.8681 38.067 26.2564 38.4552L25.7688 39.4845C25.3174 39.1143 24.8705 38.8479 24.4281 38.6854C23.9947 38.5139 23.5207 38.4281 23.0061 38.4281C22.0039 38.4281 21.2275 38.7531 20.6767 39.4032C20.135 40.0533 19.8641 40.9787 19.8641 42.1795C19.8641 43.3893 20.135 44.3238 20.6767 44.9829C21.2275 45.6329 22.0039 45.9579 23.0061 45.9579C23.5207 45.9579 23.9947 45.8767 24.4281 45.7142C24.8705 45.5426 25.3174 45.2718 25.7688 44.9016L26.2564 45.9309C25.8681 46.3191 25.3896 46.617 24.8208 46.8247C24.2611 47.0233 23.6516 47.1226 22.9925 47.1226ZM31.5943 40.0262C33.2285 40.0262 34.0455 40.9381 34.0455 42.7618V47.0143H32.6777V42.8431C32.6777 42.2472 32.5603 41.8138 32.3256 41.543C32.0999 41.2721 31.7342 41.1367 31.2286 41.1367C30.6508 41.1367 30.1858 41.3173 29.8337 41.6784C29.4906 42.0395 29.3191 42.5226 29.3191 43.1275V47.0143H27.9648V37.0467H29.3191V41.245C29.5448 40.8478 29.8563 40.5453 30.2535 40.3377C30.6508 40.13 31.0977 40.0262 31.5943 40.0262ZM42.3111 40.1887V47.0143H40.9569V45.8496C40.7582 46.2559 40.4603 46.5674 40.063 46.7841C39.6748 47.0007 39.2189 47.1091 38.6952 47.1091C38.0903 47.1091 37.5576 46.9646 37.0971 46.6757C36.6457 46.3868 36.2936 45.9805 36.0408 45.4569C35.788 44.9242 35.6616 44.3057 35.6616 43.6015C35.6616 42.8973 35.788 42.2743 36.0408 41.7326C36.3026 41.1909 36.6638 40.771 37.1242 40.4731C37.5847 40.1751 38.1083 40.0262 38.6952 40.0262C39.2189 40.0262 39.6748 40.139 40.063 40.3647C40.4513 40.5814 40.7492 40.8929 40.9569 41.2992V40.1887H42.3111ZM39.0202 46.0257C39.6342 46.0257 40.1082 45.8135 40.4422 45.3891C40.7853 44.9558 40.9569 44.3509 40.9569 43.5744C40.9569 42.7889 40.7853 42.184 40.4422 41.7597C40.1082 41.3353 39.6297 41.1231 39.0067 41.1231C38.3927 41.1231 37.9097 41.3443 37.5576 41.7867C37.2145 42.2201 37.043 42.825 37.043 43.6015C37.043 44.3689 37.2145 44.9648 37.5576 45.3891C37.9097 45.8135 38.3973 46.0257 39.0202 46.0257ZM44.3958 37.0467H45.7501V47.0143H44.3958V37.0467ZM47.8303 37.0467H49.1846V47.0143H47.8303V37.0467ZM57.0882 43.6286H52.2128C52.2579 45.2266 52.9847 46.0257 54.3932 46.0257C55.1787 46.0257 55.8965 45.7683 56.5465 45.2537L56.9663 46.2288C56.6594 46.4997 56.2666 46.7163 55.7881 46.8789C55.3186 47.0323 54.8446 47.1091 54.3661 47.1091C53.2737 47.1091 52.4159 46.7976 51.793 46.1746C51.17 45.5426 50.8585 44.6804 50.8585 43.5879C50.8585 42.8927 50.9939 42.2743 51.2648 41.7326C51.5447 41.1909 51.9329 40.771 52.4295 40.4731C52.9261 40.1751 53.4903 40.0262 54.1223 40.0262C55.0433 40.0262 55.7655 40.3241 56.2892 40.92C56.8219 41.5159 57.0882 42.342 57.0882 43.3983V43.6286ZM54.1494 41.0419C53.6348 41.0419 53.215 41.1954 52.8899 41.5023C52.5649 41.8093 52.3573 42.2472 52.267 42.816H55.8829C55.8287 42.2382 55.6527 41.8003 55.3547 41.5023C55.0568 41.1954 54.655 41.0419 54.1494 41.0419ZM62.3626 40.0262C63.9967 40.0262 64.8138 40.9381 64.8138 42.7618V47.0143H63.446V42.8431C63.446 42.2472 63.3286 41.8138 63.0939 41.543C62.8682 41.2721 62.5025 41.1367 61.9969 41.1367C61.4191 41.1367 60.9541 41.3173 60.602 41.6784C60.2589 42.0395 60.0874 42.5226 60.0874 43.1275V47.0143H58.7331V42.1118C58.7331 41.3985 58.697 40.7575 58.6247 40.1887H59.8978L60.0196 41.3669C60.2363 40.9335 60.5478 40.604 60.9541 40.3783C61.3694 40.1435 61.8389 40.0262 62.3626 40.0262ZM73.1336 40.1887V46.8924C73.1336 47.9307 72.8582 48.7117 72.3075 49.2353C71.7658 49.768 70.9577 50.0343 69.8833 50.0343C68.845 50.0343 67.9376 49.8086 67.1612 49.3572L67.3914 48.2873C67.8158 48.513 68.222 48.6801 68.6103 48.7884C69.0075 48.8967 69.4274 48.9509 69.8698 48.9509C71.1428 48.9509 71.7793 48.3009 71.7793 47.0007V45.5246C71.5716 45.9218 71.2692 46.2378 70.8719 46.4726C70.4747 46.6983 70.0142 46.8111 69.4906 46.8111C68.8947 46.8111 68.362 46.6712 67.8925 46.3913C67.432 46.1114 67.0709 45.7142 66.8091 45.1995C66.5563 44.6849 66.4299 44.0935 66.4299 43.4254C66.4299 42.7573 66.5563 42.1659 66.8091 41.6513C67.0709 41.1367 67.432 40.7394 67.8925 40.4595C68.362 40.1706 68.8947 40.0262 69.4906 40.0262C70.0142 40.0262 70.4747 40.139 70.8719 40.3647C71.2692 40.5814 71.5716 40.8929 71.7793 41.2992V40.1887H73.1336ZM69.802 45.7142C70.416 45.7142 70.899 45.511 71.2511 45.1047C71.6032 44.6985 71.7793 44.1387 71.7793 43.4254C71.7793 42.7122 71.6032 42.1524 71.2511 41.7461C70.908 41.3308 70.425 41.1231 69.802 41.1231C69.1881 41.1231 68.7006 41.3308 68.3394 41.7461C67.9873 42.1524 67.8112 42.7122 67.8112 43.4254C67.8112 44.1297 67.9873 44.6894 68.3394 45.1047C68.7006 45.511 69.1881 45.7142 69.802 45.7142ZM81.0404 43.6286H76.165C76.2101 45.2266 76.9369 46.0257 78.3454 46.0257C79.1309 46.0257 79.8486 45.7683 80.4987 45.2537L80.9185 46.2288C80.6115 46.4997 80.2188 46.7163 79.7403 46.8789C79.2708 47.0323 78.7968 47.1091 78.3183 47.1091C77.2258 47.1091 76.3681 46.7976 75.7451 46.1746C75.1222 45.5426 74.8107 44.6804 74.8107 43.5879C74.8107 42.8927 74.9461 42.2743 75.217 41.7326C75.4969 41.1909 75.8851 40.771 76.3817 40.4731C76.8782 40.1751 77.4425 40.0262 78.0745 40.0262C78.9954 40.0262 79.7177 40.3241 80.2414 40.92C80.7741 41.5159 81.0404 42.342 81.0404 43.3983V43.6286ZM78.1016 41.0419C77.587 41.0419 77.1671 41.1954 76.8421 41.5023C76.5171 41.8093 76.3094 42.2472 76.2191 42.816H79.8351C79.7809 42.2382 79.6049 41.8003 79.3069 41.5023C79.009 41.1954 78.6072 41.0419 78.1016 41.0419ZM85.0688 47.1091C83.877 47.1091 82.938 46.8202 82.2519 46.2423L82.6581 45.2537C83.3714 45.7954 84.1885 46.0663 85.1094 46.0663C85.5789 46.0663 85.9355 45.9895 86.1793 45.8361C86.4231 45.6735 86.5449 45.4478 86.5449 45.1589C86.5449 44.9151 86.4592 44.7255 86.2876 44.5901C86.1251 44.4457 85.8452 44.3238 85.448 44.2245L84.3104 43.9536C83.7145 43.8272 83.2585 43.606 82.9425 43.29C82.6356 42.965 82.4821 42.5632 82.4821 42.0847C82.4821 41.4707 82.7259 40.9742 83.2134 40.595C83.71 40.2158 84.3645 40.0262 85.1771 40.0262C85.6647 40.0262 86.1251 40.1029 86.5585 40.2564C87.0009 40.4099 87.3756 40.6266 87.6825 40.9065L87.2627 41.868C86.6036 41.3443 85.9084 41.0825 85.1771 41.0825C84.7347 41.0825 84.3916 41.1683 84.1479 41.3398C83.9041 41.5023 83.7822 41.7326 83.7822 42.0305C83.7822 42.2653 83.8589 42.4549 84.0124 42.5993C84.1659 42.7438 84.4097 42.8566 84.7437 42.9379L85.9084 43.2223C86.5585 43.3667 87.037 43.597 87.344 43.913C87.66 44.2199 87.818 44.6217 87.818 45.1183C87.818 45.7322 87.5697 46.2198 87.0731 46.5809C86.5856 46.933 85.9175 47.1091 85.0688 47.1091Z" fill="#363636"/>
</svg>
