<svg width="25" height="25" viewBox="0 0 25 25" fill="none" xmlns="http://www.w3.org/2000/svg">
<path d="M21.3906 14.088C18.6025 15.2166 15.5549 15.8381 12.3621 15.8381C9.16926 15.8381 6.12161 15.2166 3.3335 14.088M16.3748 6.80951V4.80316C16.3748 3.69509 15.4765 2.79681 14.3684 2.79681H10.3557C9.24764 2.79681 8.34937 3.69509 8.34937 4.80316V6.80951M12.3621 12.8286H12.3721M5.33985 20.854H19.3843C20.4924 20.854 21.3906 19.9557 21.3906 18.8476V8.81586C21.3906 7.70779 20.4924 6.80951 19.3843 6.80951H5.33985C4.23177 6.80951 3.3335 7.70779 3.3335 8.81586V18.8476C3.3335 19.9557 4.23177 20.854 5.33985 20.854Z" stroke="#030310" stroke-width="1.50476" stroke-linecap="round" stroke-linejoin="round"/>
</svg>
