<svg width="107" height="59" viewBox="0 0 107 59" fill="none" xmlns="http://www.w3.org/2000/svg">
<path d="M45.4231 17.8159L52.3834 23.093C52.976 23.5422 53.748 23.5422 54.3406 23.093L61.3009 17.8159M47.1873 28.8508H59.5367C60.5111 28.8508 61.3009 27.9525 61.3009 26.8444V16.8127C61.3009 15.7046 60.5111 14.8063 59.5367 14.8063H47.1873C46.213 14.8063 45.4231 15.7046 45.4231 16.8127V26.8444C45.4231 27.9525 46.213 28.8508 47.1873 28.8508Z" stroke="#373F41" stroke-width="1.50476" stroke-linecap="round" stroke-linejoin="round"/>
<path d="M31.9228 37.2241V46.8666H30.6633V40.2442L27.8058 46.8666H26.8442L23.9461 40.2848L23.9596 46.8666H22.7001V37.2241H23.8242L27.3318 45.1873L30.7988 37.2241H31.9228ZM39.9563 43.4809H35.0808C35.126 45.079 35.8528 45.878 37.2612 45.878C38.0467 45.878 38.7645 45.6207 39.4146 45.1061L39.8344 46.0812C39.5274 46.352 39.1347 46.5687 38.6562 46.7312C38.1867 46.8847 37.7127 46.9614 37.2342 46.9614C36.1417 46.9614 35.284 46.65 34.661 46.027C34.038 45.395 33.7266 44.5328 33.7266 43.4403C33.7266 42.7451 33.862 42.1266 34.1328 41.5849C34.4127 41.0432 34.801 40.6234 35.2975 40.3254C35.7941 40.0275 36.3584 39.8785 36.9904 39.8785C37.9113 39.8785 38.6336 40.1765 39.1572 40.7724C39.6899 41.3682 39.9563 42.1944 39.9563 43.2507V43.4809ZM37.0175 40.8942C36.5028 40.8942 36.083 41.0477 35.758 41.3547C35.433 41.6617 35.2253 42.0996 35.135 42.6684H38.751C38.6968 42.0905 38.5207 41.6526 38.2228 41.3547C37.9248 41.0477 37.5231 40.8942 37.0175 40.8942ZM43.9847 46.9614C42.7929 46.9614 41.8539 46.6725 41.1677 46.0947L41.574 45.1061C42.2873 45.6478 43.1044 45.9186 44.0253 45.9186C44.4948 45.9186 44.8514 45.8419 45.0952 45.6884C45.3389 45.5259 45.4608 45.3002 45.4608 45.0113C45.4608 44.7675 45.3751 44.5779 45.2035 44.4425C45.041 44.298 44.7611 44.1761 44.3639 44.0768L43.2263 43.806C42.6304 43.6796 42.1744 43.4584 41.8584 43.1424C41.5515 42.8173 41.398 42.4156 41.398 41.937C41.398 41.3231 41.6417 40.8265 42.1293 40.4473C42.6259 40.0681 43.2804 39.8785 44.093 39.8785C44.5805 39.8785 45.041 39.9553 45.4744 40.1088C45.9168 40.2622 46.2915 40.4789 46.5984 40.7588L46.1786 41.7204C45.5195 41.1967 44.8243 40.9349 44.093 40.9349C43.6506 40.9349 43.3075 41.0206 43.0637 41.1922C42.82 41.3547 42.6981 41.5849 42.6981 41.8829C42.6981 42.1176 42.7748 42.3072 42.9283 42.4517C43.0818 42.5961 43.3256 42.709 43.6596 42.7902L44.8243 43.0746C45.4744 43.2191 45.9529 43.4493 46.2599 43.7653C46.5759 44.0723 46.7339 44.4741 46.7339 44.9706C46.7339 45.5846 46.4856 46.0721 45.989 46.4333C45.5015 46.7854 44.8333 46.9614 43.9847 46.9614ZM50.8049 46.9614C49.6131 46.9614 48.6741 46.6725 47.988 46.0947L48.3942 45.1061C49.1075 45.6478 49.9246 45.9186 50.8455 45.9186C51.315 45.9186 51.6716 45.8419 51.9154 45.6884C52.1592 45.5259 52.281 45.3002 52.281 45.0113C52.281 44.7675 52.1953 44.5779 52.0237 44.4425C51.8612 44.298 51.5813 44.1761 51.1841 44.0768L50.0465 43.806C49.4506 43.6796 48.9946 43.4584 48.6786 43.1424C48.3717 42.8173 48.2182 42.4156 48.2182 41.937C48.2182 41.3231 48.462 40.8265 48.9495 40.4473C49.4461 40.0681 50.1006 39.8785 50.9132 39.8785C51.4008 39.8785 51.8612 39.9553 52.2946 40.1088C52.737 40.2622 53.1117 40.4789 53.4186 40.7588L52.9988 41.7204C52.3397 41.1967 51.6445 40.9349 50.9132 40.9349C50.4708 40.9349 50.1277 41.0206 49.884 41.1922C49.6402 41.3547 49.5183 41.5849 49.5183 41.8829C49.5183 42.1176 49.595 42.3072 49.7485 42.4517C49.902 42.5961 50.1458 42.709 50.4798 42.7902L51.6445 43.0746C52.2946 43.2191 52.7731 43.4493 53.0801 43.7653C53.3961 44.0723 53.5541 44.4741 53.5541 44.9706C53.5541 45.5846 53.3058 46.0721 52.8092 46.4333C52.3217 46.7854 51.6536 46.9614 50.8049 46.9614ZM61.4848 40.041V46.8666H60.1305V45.702C59.9319 46.1082 59.6339 46.4197 59.2367 46.6364C58.8485 46.8531 58.3925 46.9614 57.8689 46.9614C57.2639 46.9614 56.7313 46.817 56.2708 46.5281C55.8194 46.2392 55.4673 45.8329 55.2145 45.3092C54.9617 44.7765 54.8353 44.1581 54.8353 43.4538C54.8353 42.7496 54.9617 42.1266 55.2145 41.5849C55.4763 41.0432 55.8374 40.6234 56.2979 40.3254C56.7583 40.0275 57.282 39.8785 57.8689 39.8785C58.3925 39.8785 58.8485 39.9914 59.2367 40.2171C59.6249 40.4338 59.9229 40.7453 60.1305 41.1516V40.041H61.4848ZM58.1939 45.878C58.8078 45.878 59.2818 45.6658 59.6159 45.2415C59.959 44.8081 60.1305 44.2032 60.1305 43.4268C60.1305 42.6413 59.959 42.0364 59.6159 41.612C59.2818 41.1877 58.8033 40.9755 58.1803 40.9755C57.5664 40.9755 57.0834 41.1967 56.7313 41.6391C56.3882 42.0725 56.2166 42.6774 56.2166 43.4538C56.2166 44.2213 56.3882 44.8172 56.7313 45.2415C57.0834 45.6658 57.5709 45.878 58.1939 45.878ZM69.8669 40.041V46.7448C69.8669 47.783 69.5915 48.564 69.0408 49.0877C68.4991 49.6204 67.691 49.8867 66.6166 49.8867C65.5783 49.8867 64.6709 49.661 63.8945 49.2096L64.1247 48.1397C64.5491 48.3654 64.9553 48.5324 65.3436 48.6408C65.7408 48.7491 66.1607 48.8033 66.6031 48.8033C67.8761 48.8033 68.5126 48.1532 68.5126 46.8531V45.3769C68.3049 45.7742 68.0025 46.0902 67.6052 46.3249C67.208 46.5506 66.7475 46.6635 66.2239 46.6635C65.628 46.6635 65.0953 46.5236 64.6258 46.2437C64.1653 45.9638 63.8042 45.5665 63.5424 45.0519C63.2896 44.5373 63.1632 43.9459 63.1632 43.2778C63.1632 42.6097 63.2896 42.0183 63.5424 41.5037C63.8042 40.989 64.1653 40.5918 64.6258 40.3119C65.0953 40.023 65.628 39.8785 66.2239 39.8785C66.7475 39.8785 67.208 39.9914 67.6052 40.2171C68.0025 40.4338 68.3049 40.7453 68.5126 41.1516V40.041H69.8669ZM66.5353 45.5665C67.1493 45.5665 67.6323 45.3634 67.9844 44.9571C68.3365 44.5508 68.5126 43.991 68.5126 43.2778C68.5126 42.5645 68.3365 42.0048 67.9844 41.5985C67.6413 41.1832 67.1583 40.9755 66.5353 40.9755C65.9214 40.9755 65.4339 41.1832 65.0727 41.5985C64.7206 42.0048 64.5445 42.5645 64.5445 43.2778C64.5445 43.982 64.7206 44.5418 65.0727 44.9571C65.4339 45.3634 65.9214 45.5665 66.5353 45.5665ZM77.7737 43.4809H72.8983C72.9434 45.079 73.6702 45.878 75.0787 45.878C75.8642 45.878 76.5819 45.6207 77.232 45.1061L77.6518 46.0812C77.3448 46.352 76.9521 46.5687 76.4736 46.7312C76.0041 46.8847 75.5301 46.9614 75.0516 46.9614C73.9591 46.9614 73.1014 46.65 72.4784 46.027C71.8555 45.395 71.544 44.5328 71.544 43.4403C71.544 42.7451 71.6794 42.1266 71.9503 41.5849C72.2302 41.0432 72.6184 40.6234 73.115 40.3254C73.6115 40.0275 74.1758 39.8785 74.8078 39.8785C75.7287 39.8785 76.451 40.1765 76.9747 40.7724C77.5074 41.3682 77.7737 42.1944 77.7737 43.2507V43.4809ZM74.8349 40.8942C74.3203 40.8942 73.9004 41.0477 73.5754 41.3547C73.2504 41.6617 73.0427 42.0996 72.9524 42.6684H76.5684C76.5142 42.0905 76.3382 41.6526 76.0402 41.3547C75.7423 41.0477 75.3405 40.8942 74.8349 40.8942ZM81.8021 46.9614C80.6103 46.9614 79.6713 46.6725 78.9852 46.0947L79.3915 45.1061C80.1047 45.6478 80.9218 45.9186 81.8427 45.9186C82.3122 45.9186 82.6688 45.8419 82.9126 45.6884C83.1564 45.5259 83.2783 45.3002 83.2783 45.0113C83.2783 44.7675 83.1925 44.5779 83.0209 44.4425C82.8584 44.298 82.5785 44.1761 82.1813 44.0768L81.0437 43.806C80.4478 43.6796 79.9919 43.4584 79.6759 43.1424C79.3689 42.8173 79.2154 42.4156 79.2154 41.937C79.2154 41.3231 79.4592 40.8265 79.9467 40.4473C80.4433 40.0681 81.0979 39.8785 81.9104 39.8785C82.398 39.8785 82.8584 39.9553 83.2918 40.1088C83.7342 40.2622 84.1089 40.4789 84.4159 40.7588L83.996 41.7204C83.3369 41.1967 82.6417 40.9349 81.9104 40.9349C81.468 40.9349 81.1249 41.0206 80.8812 41.1922C80.6374 41.3547 80.5155 41.5849 80.5155 41.8829C80.5155 42.1176 80.5923 42.3072 80.7457 42.4517C80.8992 42.5961 81.143 42.709 81.4771 42.7902L82.6417 43.0746C83.2918 43.2191 83.7703 43.4493 84.0773 43.7653C84.3933 44.0723 84.5513 44.4741 84.5513 44.9706C84.5513 45.5846 84.303 46.0721 83.8064 46.4333C83.3189 46.7854 82.6508 46.9614 81.8021 46.9614Z" fill="#373F41"/>
</svg>
