<svg width="107" height="59" viewBox="0 0 107 59" fill="none" xmlns="http://www.w3.org/2000/svg">
<path d="M62.3906 23.088C59.6025 24.2166 56.5549 24.8381 53.3621 24.8381C50.1693 24.8381 47.1216 24.2166 44.3335 23.088M57.3748 15.8095V13.8032C57.3748 12.6951 56.4765 11.7968 55.3684 11.7968H51.3557C50.2476 11.7968 49.3494 12.6951 49.3494 13.8032V15.8095M53.3621 21.8286H53.3721M46.3398 29.854H60.3843C61.4924 29.854 62.3906 28.9557 62.3906 27.8476V17.8159C62.3906 16.7078 61.4924 15.8095 60.3843 15.8095H46.3398C45.2318 15.8095 44.3335 16.7078 44.3335 17.8159V27.8476C44.3335 28.9557 45.2318 29.854 46.3398 29.854Z" stroke="#030310" stroke-width="1.50476" stroke-linecap="round" stroke-linejoin="round"/>
<path d="M39.3887 48.099C39.7408 48.1622 40.0658 48.1938 40.3638 48.1938C40.8242 48.1938 41.1402 48.0765 41.3118 47.8417C41.4833 47.607 41.5691 47.1917 41.5691 46.5958V37.2241H42.9776V46.6093C42.9776 47.5754 42.797 48.2796 42.4358 48.722C42.0747 49.1644 41.4698 49.3856 40.6211 49.3856C40.2058 49.3856 39.795 49.3495 39.3887 49.2773V48.099ZM48.1144 46.9614C47.4463 46.9614 46.8595 46.817 46.3539 46.5281C45.8483 46.2392 45.4555 45.8284 45.1756 45.2957C44.9048 44.763 44.7694 44.14 44.7694 43.4268C44.7694 42.7135 44.9048 42.0905 45.1756 41.5578C45.4555 41.0161 45.8483 40.6008 46.3539 40.3119C46.8595 40.023 47.4463 39.8785 48.1144 39.8785C48.7735 39.8785 49.3559 40.023 49.8615 40.3119C50.3671 40.6008 50.7553 41.0161 51.0262 41.5578C51.306 42.0905 51.446 42.7135 51.446 43.4268C51.446 44.14 51.306 44.763 51.0262 45.2957C50.7553 45.8284 50.3671 46.2392 49.8615 46.5281C49.3559 46.817 48.7735 46.9614 48.1144 46.9614ZM48.1009 45.878C48.7329 45.878 49.2159 45.6704 49.55 45.255C49.884 44.8397 50.0511 44.2303 50.0511 43.4268C50.0511 42.6413 49.8795 42.0364 49.5364 41.612C49.2024 41.1877 48.7284 40.9755 48.1144 40.9755C47.4915 40.9755 47.0084 41.1877 46.6654 41.612C46.3223 42.0364 46.1507 42.6413 46.1507 43.4268C46.1507 44.2303 46.3178 44.8397 46.6518 45.255C46.9949 45.6704 47.4779 45.878 48.1009 45.878ZM56.736 39.8785C57.3318 39.8785 57.86 40.023 58.3205 40.3119C58.7809 40.6008 59.1376 41.0116 59.3904 41.5443C59.6432 42.077 59.7696 42.6954 59.7696 43.3997C59.7696 44.1039 59.6386 44.7269 59.3768 45.2686C59.124 45.8013 58.7674 46.2166 58.3069 46.5145C57.8465 46.8125 57.3228 46.9614 56.736 46.9614C56.2123 46.9614 55.7518 46.8531 55.3546 46.6364C54.9664 46.4107 54.6729 46.0902 54.4743 45.6749V46.8666H53.12V36.8991H54.4743V41.1651C54.6729 40.7588 54.9664 40.4428 55.3546 40.2171C55.7518 39.9914 56.2123 39.8785 56.736 39.8785ZM56.4245 45.878C57.0384 45.878 57.5169 45.6613 57.86 45.228C58.2031 44.7856 58.3746 44.1761 58.3746 43.3997C58.3746 42.6322 58.2031 42.0364 57.86 41.612C57.5169 41.1877 57.0384 40.9755 56.4245 40.9755C55.8015 40.9755 55.3185 41.1877 54.9754 41.612C54.6413 42.0364 54.4743 42.6413 54.4743 43.4268C54.4743 44.2122 54.6413 44.8172 54.9754 45.2415C55.3185 45.6658 55.8015 45.878 56.4245 45.878ZM63.8315 46.9614C62.6397 46.9614 61.7007 46.6725 61.0146 46.0947L61.4208 45.1061C62.1341 45.6478 62.9512 45.9186 63.8721 45.9186C64.3416 45.9186 64.6982 45.8419 64.942 45.6884C65.1858 45.5259 65.3076 45.3002 65.3076 45.0113C65.3076 44.7675 65.2219 44.5779 65.0503 44.4425C64.8878 44.298 64.6079 44.1761 64.2107 44.0768L63.0731 43.806C62.4772 43.6796 62.0212 43.4584 61.7052 43.1424C61.3983 42.8173 61.2448 42.4156 61.2448 41.937C61.2448 41.3231 61.4886 40.8265 61.9761 40.4473C62.4727 40.0681 63.1272 39.8785 63.9398 39.8785C64.4274 39.8785 64.8878 39.9553 65.3212 40.1088C65.7636 40.2622 66.1383 40.4789 66.4452 40.7588L66.0254 41.7204C65.3663 41.1967 64.6711 40.9349 63.9398 40.9349C63.4974 40.9349 63.1543 41.0206 62.9106 41.1922C62.6668 41.3547 62.5449 41.5849 62.5449 41.8829C62.5449 42.1176 62.6216 42.3072 62.7751 42.4517C62.9286 42.5961 63.1724 42.709 63.5064 42.7902L64.6711 43.0746C65.3212 43.2191 65.7997 43.4493 66.1067 43.7653C66.4227 44.0723 66.5807 44.4741 66.5807 44.9706C66.5807 45.5846 66.3324 46.0721 65.8358 46.4333C65.3483 46.7854 64.6802 46.9614 63.8315 46.9614Z" fill="#030310"/>
</svg>
