<svg width="26" height="25" viewBox="0 0 26 25" fill="none" xmlns="http://www.w3.org/2000/svg">
<g clip-path="url(#clip0_529_1430)">
<path d="M15.3789 17.0419H20.3948L18.9854 15.6325C18.6032 15.2503 18.3884 14.7319 18.3884 14.1913V11.0228C18.3884 8.40211 16.7135 6.17257 14.3757 5.34628V5.00379C14.3757 3.89571 13.4775 2.99744 12.3694 2.99744C11.2613 2.99744 10.363 3.89571 10.363 5.00379V5.34628C8.02526 6.17257 6.35034 8.40211 6.35034 11.0228V14.1913C6.35034 14.7319 6.13561 15.2503 5.75339 15.6325L4.34399 17.0419H9.35987M15.3789 17.0419V18.0451C15.3789 19.7072 14.0315 21.0546 12.3694 21.0546C10.7073 21.0546 9.35987 19.7072 9.35987 18.0451V17.0419M15.3789 17.0419H9.35987" stroke="#373F41" stroke-width="1.50476" stroke-linecap="round" stroke-linejoin="round"/>
</g>
<defs>
<clipPath id="clip0_529_1430">
<rect width="24.8286" height="24.0762" fill="white" transform="translate(0.28125 0.790466)"/>
</clipPath>
</defs>
</svg>
