<svg width="106" height="65" viewBox="0 0 106 65" fill="none" xmlns="http://www.w3.org/2000/svg">
<path d="M58.2957 15.0476H47.7623C46.9313 15.0476 46.2576 15.7213 46.2576 16.5524V27.0857C46.2576 27.9168 46.9313 28.5905 47.7623 28.5905H58.2957C59.1267 28.5905 59.8004 27.9168 59.8004 27.0857V16.5524C59.8004 15.7213 59.1267 15.0476 58.2957 15.0476Z" stroke="#373F41" stroke-width="1.50476" stroke-linecap="round" stroke-linejoin="round"/>
<path d="M46.2573 19.5619H59.8002" stroke="#373F41" stroke-width="1.50476" stroke-linecap="round" stroke-linejoin="round"/>
<path d="M50.7715 28.5905V19.5619" stroke="#373F41" stroke-width="1.50476" stroke-linecap="round" stroke-linejoin="round"/>
<path d="M25.3937 37.967V47.6095H24.1342V40.987L21.2767 47.6095H20.3152L17.417 41.0277L17.4305 47.6095H16.171V37.967H17.2951L20.8027 45.9302L24.2697 37.967H25.3937ZM33.8064 40.7839L30.6238 48.1648C30.2717 48.9683 29.8293 49.5552 29.2966 49.9253C28.773 50.3045 28.1229 50.5573 27.3465 50.6837L27.0485 49.6274C27.6895 49.4829 28.1726 49.2933 28.4976 49.0586C28.8317 48.8329 29.098 48.4898 29.2966 48.0293L29.5404 47.4605L26.6693 40.7839H28.1184L30.2582 46.0656L32.4386 40.7839H33.8064ZM52.3445 37.967L48.9452 47.6095H47.7805L45.1803 40.1609L42.5665 47.6095H41.4018L38.0161 37.967H39.4381L42.0248 45.6322L44.6928 37.967L45.722 37.9805L48.3493 45.6729L50.9767 37.967H52.3445ZM58.8606 44.2238H53.9852C54.0303 45.8218 54.7571 46.6209 56.1656 46.6209C56.9511 46.6209 57.6688 46.3636 58.3189 45.8489L58.7387 46.824C58.4318 47.0949 58.039 47.3116 57.5605 47.4741C57.091 47.6276 56.617 47.7043 56.1385 47.7043C55.046 47.7043 54.1883 47.3928 53.5654 46.7698C52.9424 46.1378 52.6309 45.2756 52.6309 44.1832C52.6309 43.488 52.7663 42.8695 53.0372 42.3278C53.3171 41.7861 53.7053 41.3662 54.2019 41.0683C54.6984 40.7704 55.2627 40.6214 55.8947 40.6214C56.8156 40.6214 57.5379 40.9193 58.0616 41.5152C58.5943 42.1111 58.8606 42.9372 58.8606 43.9936V44.2238ZM55.9218 41.6371C55.4072 41.6371 54.9874 41.7906 54.6623 42.0976C54.3373 42.4045 54.1296 42.8424 54.0394 43.4112H57.6553C57.6011 42.8334 57.4251 42.3955 57.1271 42.0976C56.8292 41.7906 56.4274 41.6371 55.9218 41.6371ZM64.1214 40.6214C64.7173 40.6214 65.2454 40.7658 65.7059 41.0548C66.1664 41.3437 66.523 41.7545 66.7758 42.2872C67.0286 42.8198 67.155 43.4383 67.155 44.1425C67.155 44.8468 67.0241 45.4697 66.7622 46.0114C66.5094 46.5441 66.1528 46.9594 65.6924 47.2574C65.2319 47.5553 64.7082 47.7043 64.1214 47.7043C63.5977 47.7043 63.1373 47.596 62.74 47.3793C62.3518 47.1536 62.0584 46.833 61.8597 46.4177V47.6095H60.5054V37.642H61.8597V41.908C62.0584 41.5017 62.3518 41.1857 62.74 40.96C63.1373 40.7342 63.5977 40.6214 64.1214 40.6214ZM63.8099 46.6209C64.4238 46.6209 64.9024 46.4042 65.2454 45.9708C65.5885 45.5284 65.7601 44.919 65.7601 44.1425C65.7601 43.3751 65.5885 42.7792 65.2454 42.3549C64.9024 41.9305 64.4238 41.7184 63.8099 41.7184C63.1869 41.7184 62.7039 41.9305 62.3608 42.3549C62.0268 42.7792 61.8597 43.3841 61.8597 44.1696C61.8597 44.9551 62.0268 45.56 62.3608 45.9844C62.7039 46.4087 63.1869 46.6209 63.8099 46.6209ZM71.2169 47.7043C70.0251 47.7043 69.0862 47.4154 68.4 46.8376L68.8063 45.8489C69.5195 46.3906 70.3366 46.6615 71.2575 46.6615C71.727 46.6615 72.0836 46.5848 72.3274 46.4313C72.5712 46.2688 72.6931 46.043 72.6931 45.7541C72.6931 45.5104 72.6073 45.3208 72.4358 45.1853C72.2732 45.0409 71.9934 44.919 71.5961 44.8197L70.4585 44.5488C69.8626 44.4224 69.4067 44.2012 69.0907 43.8852C68.7837 43.5602 68.6302 43.1584 68.6302 42.6799C68.6302 42.066 68.874 41.5694 69.3615 41.1902C69.8581 40.811 70.5127 40.6214 71.3252 40.6214C71.8128 40.6214 72.2732 40.6981 72.7066 40.8516C73.149 41.0051 73.5237 41.2218 73.8307 41.5017L73.4108 42.4632C72.7518 41.9396 72.0566 41.6777 71.3252 41.6777C70.8828 41.6777 70.5398 41.7635 70.296 41.935C70.0522 42.0976 69.9303 42.3278 69.9303 42.6257C69.9303 42.8605 70.0071 43.0501 70.1606 43.1945C70.314 43.339 70.5578 43.4518 70.8919 43.5331L72.0566 43.8175C72.7066 43.962 73.1851 44.1922 73.4921 44.5082C73.8081 44.8152 73.9661 45.2169 73.9661 45.7135C73.9661 46.3274 73.7178 46.815 73.2212 47.1761C72.7337 47.5282 72.0656 47.7043 71.2169 47.7043ZM75.6536 40.7839H77.0079V47.6095H75.6536V40.7839ZM77.1162 37.8045V39.24H75.5317V37.8045H77.1162ZM80.8622 41.8402V45.2666C80.8622 45.7361 80.9615 46.0701 81.1601 46.2688C81.3678 46.4584 81.6522 46.5532 82.0133 46.5532C82.2481 46.5532 82.4873 46.517 82.7311 46.4448V47.5553C82.4332 47.6546 82.0946 47.7043 81.7154 47.7043C81.0112 47.7043 80.4649 47.5057 80.0767 47.1084C79.6885 46.7112 79.4944 46.1333 79.4944 45.3749V41.8402H78.1672V40.7839H79.4944V39.0775L80.8622 38.6035V40.7839H82.7447V41.8402H80.8622ZM89.9066 44.2238H85.0312C85.0763 45.8218 85.8031 46.6209 87.2116 46.6209C87.9971 46.6209 88.7148 46.3636 89.3649 45.8489L89.7847 46.824C89.4778 47.0949 89.085 47.3116 88.6065 47.4741C88.137 47.6276 87.663 47.7043 87.1845 47.7043C86.092 47.7043 85.2343 47.3928 84.6114 46.7698C83.9884 46.1378 83.6769 45.2756 83.6769 44.1832C83.6769 43.488 83.8123 42.8695 84.0832 42.3278C84.3631 41.7861 84.7513 41.3662 85.2479 41.0683C85.7444 40.7704 86.3087 40.6214 86.9407 40.6214C87.8616 40.6214 88.5839 40.9193 89.1076 41.5152C89.6403 42.1111 89.9066 42.9372 89.9066 43.9936V44.2238ZM86.9678 41.6371C86.4532 41.6371 86.0334 41.7906 85.7083 42.0976C85.3833 42.4045 85.1756 42.8424 85.0854 43.4112H88.7013C88.6471 42.8334 88.4711 42.3955 88.1731 42.0976C87.8752 41.7906 87.4734 41.6371 86.9678 41.6371Z" fill="#373F41"/>
</svg>
